<?xml version="1.0" encoding="UTF-8"?>
<svg xmlns="http://www.w3.org/2000/svg" viewBox="0 0 600 800" width="600" height="800" role="img" aria-label="Flora in Frequency (placeholder)">
  <rect width="600" height="800" fill="#262323"/>
  <circle cx="318.15385301016323" cy="392" r="0.8" fill="#e8bf96" opacity="0.5859649014332899"/><circle cx="332.1081277809827" cy="394.1744107893229" r="1.25" fill="#e8bf96" opacity="0.549465528446508"/><circle cx="338.82110933714915" cy="396.67502102253286" r="1.7000000000000002" fill="#e8bf96" opacity="0.7272136304897867"/><circle cx="347.54838046948873" cy="399.74534490649444" r="0.8" fill="#e8bf96" opacity="0.8851857866168483"/><circle cx="365.6475925444827" cy="405.00875578365583" r="1.25" fill="#e8bf96" opacity="0.28550788248555364"/><circle cx="344.45180176975634" cy="409.5246218088906" r="1.7000000000000002" fill="#e8bf96" opacity="0.3903778270363273"/><circle cx="360.78011291213056" cy="417.2944969230755" r="0.8" fill="#e8bf96" opacity="0.27299182878388817"/><circle cx="367.2077778822717" cy="421.2186961060515" r="1.25" fill="#e8bf96" opacity="0.2850449354747252"/><circle cx="383.8370165109242" cy="429.83712740138134" r="1.7000000000000002" fill="#e8bf96" opacity="0.38959938702634644"/><circle cx="328.2550556366105" cy="405.1872998144252" r="0.8" fill="#e8bf96" opacity="0.683161036376141"/><circle cx="322.0954693651111" cy="410.3792479546054" r="1.25" fill="#e8bf96" opacity="0.3316433996208116"/><circle cx="332.25699959784515" cy="418.17511125746586" r="1.7000000000000002" fill="#e8bf96" opacity="0.8342518882970762"/><circle cx="343.4595180123261" cy="426.7430430616982" r="0.8" fill="#e8bf96" opacity="0.41842756942543924"/><circle cx="345.6970789906681" cy="428.2736188015354" r="1.25" fill="#e8bf96" opacity="0.5913399094776832"/><circle cx="357.29828413942886" cy="437.45765310181446" r="1.7000000000000002" fill="#e8bf96" opacity="0.4191713650140809"/><circle cx="338.29638123207747" cy="444.75150486713346" r="0.8" fill="#e8bf96" opacity="0.2946343804155913"/><circle cx="347.1118242209801" cy="454.0672114425136" r="1.25" fill="#e8bf96" opacity="0.5612248546457703"/><circle cx="357.1646251933674" cy="465.12990001768685" r="1.7000000000000002" fill="#e8bf96" opacity="0.5529186256867615"/><circle cx="320.3434638203379" cy="417.5869813239439" r="0.8" fill="#e8bf96" opacity="0.5183253706690447"/><circle cx="323.029562859813" cy="420.78331363654974" r="1.25" fill="#e8bf96" opacity="0.5875053911033501"/><circle cx="320.67290843845325" cy="436.77610342482785" r="1.7000000000000002" fill="#e8bf96" opacity="0.49709958908071705"/><circle cx="322.94724638561905" cy="439.62693063059584" r="0.8" fill="#e8bf96" opacity="0.5290117116857982"/><circle cx="329.50220076468764" cy="451.8017289636941" r="1.25" fill="#e8bf96" opacity="0.3605454852101229"/><circle cx="333.2189000910435" cy="458.8596455482094" r="1.7000000000000002" fill="#e8bf96" opacity="0.8806140881387545"/><circle cx="336.89476875491624" cy="466.86651779964376" r="0.8" fill="#e8bf96" opacity="0.7149214128902894"/><circle cx="325.01490461238546" cy="481.7214280505322" r="1.25" fill="#e8bf96" opacity="0.33292078148794646"/><circle cx="328.3900746065568" cy="492.1599799878329" r="1.7000000000000002" fill="#e8bf96" opacity="0.6060946962517119"/><circle cx="308.47383265259435" cy="422.2105972405378" r="0.8" fill="#e8bf96" opacity="0.2469551962294372"/><circle cx="311.0710236708664" cy="432.9739897809214" r="1.25" fill="#e8bf96" opacity="0.22543337175690795"/><circle cx="312.39240406107564" cy="441.03186698690087" r="1.7000000000000002" fill="#e8bf96" opacity="0.7155222587614116"/><circle cx="307.85479511477183" cy="451.4425466765762" r="0.8" fill="#e8bf96" opacity="0.7732557867983768"/><circle cx="307.9655789774289" cy="458.1893017908731" r="1.25" fill="#e8bf96" opacity="0.2323926492051396"/><circle cx="308.69304294922523" cy="477.86744943897514" r="1.7000000000000002" fill="#e8bf96" opacity="0.42569754832831674"/><circle cx="306.932682486892" cy="484.6291020689461" r="0.8" fill="#e8bf96" opacity="0.732747873095941"/><circle cx="303.91332682334325" cy="487.1495889727192" r="1.25" fill="#e8bf96" opacity="0.449218650779876"/><circle cx="300" cy="501.9357992287825" r="1.7000000000000002" fill="#e8bf96" opacity="0.6584769566098839"/><circle cx="299.1933467047626" cy="419.08484859866786" r="0.8" fill="#e8bf96" opacity="0.36763903488055805"/><circle cx="297.5746154253972" cy="428.0574904866205" r="1.25" fill="#e8bf96" opacity="0.9007996957970317"/><circle cx="293.85892853714813" cy="446.5170247577541" r="1.7000000000000002" fill="#e8bf96" opacity="0.8564545140584595"/><circle cx="289.2711142338911" cy="456.5574503669769" r="0.8" fill="#e8bf96" opacity="0.4724428209619146"/><circle cx="291.6473832074053" cy="455.2098999796492" r="1.25" fill="#e8bf96" opacity="0.7154096524706983"/><circle cx="286.237438009938" cy="467.1970591229318" r="1.7000000000000002" fill="#e8bf96" opacity="0.6536770063317999"/><circle cx="278.44265933750245" cy="480.77371667483794" r="0.8" fill="#e8bf96" opacity="0.810662107240405"/><circle cx="271.5240028427381" cy="483.24091383992067" r="1.25" fill="#e8bf96" opacity="0.3808605833679576"/><circle cx="260.07278392212794" cy="494.00419250908476" r="1.7000000000000002" fill="#e8bf96" opacity="0.7931107139758022"/><circle cx="292.6135504761591" cy="418.49311719438066" r="0.8" fill="#e8bf96" opacity="0.6757606404063335"/><circle cx="284.59070274052846" cy="435.1801729339858" r="1.25" fill="#e8bf96" opacity="0.7566593556796033"/><circle cx="277.8849863688619" cy="441.5261735739881" r="1.7000000000000002" fill="#e8bf96" opacity="0.3631478527561921"/><circle cx="272.56059449856133" cy="441.98794478295036" r="0.8" fill="#e8bf96" opacity="0.22205043425485202"/><circle cx="260.15984039073555" cy="451.87759956911907" r="1.25" fill="#e8bf96" opacity="0.5585371900932113"/><circle cx="270.2779624020268" cy="456.3758972495621" r="1.7000000000000002" fill="#e8bf96" opacity="0.9037158067090058"/><circle cx="258.62727165773975" cy="463.40817935913583" r="0.8" fill="#e8bf96" opacity="0.8558466696543473"/><circle cx="250.33732156328432" cy="461.50131668789226" r="1.25" fill="#e8bf96" opacity="0.4638702501254738"/><circle cx="231.78612682688163" cy="470.42808054114687" r="1.7000000000000002" fill="#e8bf96" opacity="0.5289593636679637"/><circle cx="275.6831452832068" cy="415.1985590365622" r="0.8" fill="#e8bf96" opacity="0.4171338767221823"/><circle cx="279.04437304047366" cy="420.8654129185282" r="1.25" fill="#e8bf96" opacity="0.22604143768177892"/><circle cx="274.07613211569225" cy="420.40167124273785" r="1.7000000000000002" fill="#e8bf96" opacity="0.4719306482850879"/><circle cx="265.60797383801264" cy="422.37588566080245" r="0.8" fill="#e8bf96" opacity="0.48462565262881974"/><circle cx="249.2923846973946" cy="428.4323674437244" r="1.25" fill="#e8bf96" opacity="0.47067798723412124"/><circle cx="229.76664593881046" cy="433.26950629114924" r="1.7000000000000002" fill="#e8bf96" opacity="0.4326319022644566"/><circle cx="250.0914481982249" cy="433.5144676703943" r="0.8" fill="#e8bf96" opacity="0.24607563289093376"/><circle cx="240.40286242726648" cy="430.41172558970555" r="1.25" fill="#e8bf96" opacity="0.39334500867318634"/><circle cx="224.10203899509708" cy="430.11370724983095" r="1.7000000000000002" fill="#e8bf96" opacity="0.9114922183430462"/><circle cx="276.0003596225325" cy="401.3772886937828" r="0.8" fill="#e8bf96" opacity="0.38976893654436934"/><circle cx="268.03005507041735" cy="401.6344677804044" r="1.25" fill="#e8bf96" opacity="0.911259859505044"/><circle cx="271.5601466879807" cy="403.2120916082317" r="1.7000000000000002" fill="#e8bf96" opacity="0.523892806326985"/><circle cx="260.7665129126072" cy="402.7362488649367" r="0.8" fill="#e8bf96" opacity="0.25284480427573724"/><circle cx="248.62953355927644" cy="401.3108061448262" r="1.25" fill="#e8bf96" opacity="0.2806460302555206"/><circle cx="235.2820046459418" cy="399.0044161483708" r="1.7000000000000002" fill="#e8bf96" opacity="0.5257436261344264"/><circle cx="223.06383167512823" cy="395.7729275153758" r="0.8" fill="#e8bf96" opacity="0.535648830131795"/><circle cx="244.19320490459495" cy="392" r="1.25" fill="#e8bf96" opacity="0.5102597966425674"/><circle cx="223.32448301321006" cy="386.8074184658086" r="1.7000000000000002" fill="#e8bf96" opacity="0.24106611797264577"/><circle cx="277.7990169819918" cy="389.32645295041164" r="0.8" fill="#e8bf96" opacity="0.2914152609830535"/><circle cx="259.4286282208057" cy="385.3911678030523" r="1.25" fill="#e8bf96" opacity="0.6352106950873531"/><circle cx="253.70834162413257" cy="382.82682463604374" r="1.7000000000000002" fill="#e8bf96" opacity="0.6117245036801432"/><circle cx="268.5475651203556" cy="379.6002320650691" r="0.8" fill="#e8bf96" opacity="0.26012301630962154"/><circle cx="257.96722848552116" cy="374.50747228327174" r="1.25" fill="#e8bf96" opacity="0.31945435974264"/><circle cx="243.20142168267225" cy="367.3067211652666" r="1.7000000000000002" fill="#e8bf96" opacity="0.8286360465976212"/><circle cx="230.24371301511826" cy="360.517754715778" r="0.8" fill="#e8bf96" opacity="0.42644260549397583"/><circle cx="216.9569682820005" cy="353.2418616035169" r="1.25" fill="#e8bf96" opacity="0.5514932566499464"/><circle cx="246.27367016552626" cy="347.30986369187997" r="1.7000000000000002" fill="#e8bf96" opacity="0.5422396368412319"/><circle cx="283.67390652547357" cy="378.7521059483764" r="0.8" fill="#e8bf96" opacity="0.7007921910274671"/><circle cx="271.77764444052735" cy="369.4380720414982" r="1.25" fill="#e8bf96" opacity="0.5703700750785355"/><circle cx="263.18760208002874" cy="362.77890055965804" r="1.7000000000000002" fill="#e8bf96" opacity="0.7185504171038883"/><circle cx="258.61219494799496" cy="359.16494197066334" r="0.8" fill="#e8bf96" opacity="0.4190318795837993"/><circle cx="269.9041805110252" cy="350.54439199797724" r="1.25" fill="#e8bf96" opacity="0.3156872869343897"/><circle cx="257.21890301817126" cy="335.63828113173827" r="1.7000000000000002" fill="#e8bf96" opacity="0.9186345880199223"/><circle cx="252.72091460811265" cy="331.51653184218617" r="0.8" fill="#e8bf96" opacity="0.4999732551409761"/><circle cx="242.87842450806056" cy="320.1553673349699" r="1.25" fill="#e8bf96" opacity="0.4355845621614389"/><circle cx="234.4910348223802" cy="310.12414754934014" r="1.7000000000000002" fill="#e8bf96" opacity="0.7502462971656495"/><circle cx="287.10079774426714" cy="364.06121160841934" r="0.8" fill="#e8bf96" opacity="0.30985723463738396"/><circle cx="283.3335472866235" cy="357.4088349469441" r="1.25" fill="#e8bf96" opacity="0.8376032313544055"/><circle cx="277.32540200975643" cy="346.03799959912504" r="1.7000000000000002" fill="#e8bf96" opacity="0.6298834897589768"/><circle cx="274.8860388551969" cy="341.45315661111374" r="0.8" fill="#e8bf96" opacity="0.4136953156797244"/><circle cx="271.1769581319477" cy="333.5125544927863" r="1.25" fill="#e8bf96" opacity="0.9022345434316957"/><circle cx="278.05199953126044" cy="313.2786946253609" r="1.7000000000000002" fill="#e8bf96" opacity="0.596707557386726"/><circle cx="276.8242323770596" cy="310.2360577248973" r="0.8" fill="#e8bf96" opacity="0.5680483268214811"/><circle cx="274.4756757164415" cy="301.0016156347648" r="1.25" fill="#e8bf96" opacity="0.4715345405385233"/><circle cx="271.045759190878" cy="284.8400117010627" r="1.7000000000000002" fill="#e8bf96" opacity="0.32299391717526305"/><circle cx="293.10338960857143" cy="364.71282620334017" r="0.8" fill="#e8bf96" opacity="0.39374896916080615"/><circle cx="293.8375863539034" cy="345.3648484211153" r="1.25" fill="#e8bf96" opacity="0.8076236504349434"/><circle cx="293.67827670946576" cy="339.470177384316" r="1.7000000000000002" fill="#e8bf96" opacity="0.8130421780994948"/><circle cx="294.1030690755077" cy="333.75176391494745" r="0.8" fill="#e8bf96" opacity="0.3010266490239883"/><circle cx="294.2183268045719" cy="314.7497873209702" r="1.25" fill="#e8bf96" opacity="0.6139208493966362"/><circle cx="296.661396593036" cy="310.8243772483706" r="1.7000000000000002" fill="#e8bf96" opacity="0.3511803393469745"/><circle cx="300" cy="301.7870817903919" r="0.8" fill="#e8bf96" opacity="0.9115536691123634"/><circle cx="302.9121463123966" cy="294.21940152712443" r="1.25" fill="#e8bf96" opacity="0.8930827768044036"/><circle cx="307.0046409172225" cy="287.8640308511442" r="1.7000000000000002" fill="#e8bf96" opacity="0.2931036107777982"/><circle cx="303.33774152658043" cy="362.3693828446238" r="0.8" fill="#e8bf96" opacity="0.5082469763915651"/><circle cx="307.728772967418" cy="345.4947162157472" r="1.25" fill="#e8bf96" opacity="0.8344396069053982"/><circle cx="307.32615994925476" cy="336.55799312643313" r="1.7000000000000002" fill="#e8bf96" opacity="0.5669054581482851"/><circle cx="309.99259287083237" cy="337.401619448329" r="0.8" fill="#e8bf96" opacity="0.7315279056108193"/><circle cx="316.64788145243335" cy="323.4435702235924" r="1.25" fill="#e8bf96" opacity="0.8000402630666212"/><circle cx="322.3799934647357" cy="320.29149953285463" r="1.7000000000000002" fill="#e8bf96" opacity="0.8428867904012076"/><circle cx="334.81927993028734" cy="303.0453249204839" r="0.8" fill="#e8bf96" opacity="0.7432897339974442"/><circle cx="326.59876992972715" cy="296.59769247726524" r="1.25" fill="#e8bf96" opacity="0.7012330549650141"/><circle cx="332.6785068239542" cy="300.4277788842418" r="1.7000000000000002" fill="#e8bf96" opacity="0.301412490141156"/><circle cx="312.2957892906899" cy="364.4638019764786" r="0.8" fill="#e8bf96" opacity="0.24057276856867246"/><circle cx="321.88611559390716" cy="352.1288031636057" r="1.25" fill="#e8bf96" opacity="0.44418101221301187"/><circle cx="328.0938750086979" cy="349.776429245918" r="1.7000000000000002" fill="#e8bf96" opacity="0.647354443196964"/><circle cx="323.39758143695315" cy="341.32244152142954" r="0.8" fill="#e8bf96" opacity="0.303309333969737"/><circle cx="332.9946450103722" cy="335.05215964244144" r="1.25" fill="#e8bf96" opacity="0.7705525450127606"/><circle cx="344.3834933954815" cy="329.88673250627977" r="1.7000000000000002" fill="#e8bf96" opacity="0.7589882922386277"/><circle cx="356.2247508193061" cy="327.3562687391839" r="0.8" fill="#e8bf96" opacity="0.39516091472225523"/><circle cx="370.51268334160693" cy="324.73008921680133" r="1.25" fill="#e8bf96" opacity="0.6601672411298932"/><circle cx="347.14094938504417" cy="327.0655090397022" r="1.7000000000000002" fill="#e8bf96" opacity="0.31315806716285804"/><circle cx="314.4807706451309" cy="376.1351572597139" r="0.8" fill="#e8bf96" opacity="0.8322326986813277"/><circle cx="325.17354215574983" cy="369.76610675396563" r="1.25" fill="#e8bf96" opacity="0.6577397229944109"/><circle cx="338.3487963713875" cy="364.4471870331641" r="1.7000000000000002" fill="#e8bf96" opacity="0.4986555963432875"/><circle cx="345.7113463317404" cy="365.13976072720243" r="0.8" fill="#e8bf96" opacity="0.6799378860518299"/><circle cx="339.15257339476085" cy="359.43247031360005" r="1.25" fill="#e8bf96" opacity="0.4801957438773752"/><circle cx="351.43034001097635" cy="358.8519632326988" r="1.7000000000000002" fill="#e8bf96" opacity="0.6539706719074456"/><circle cx="360.8246376575438" cy="361.455669130467" r="0.8" fill="#e8bf96" opacity="0.8883068293074938"/><circle cx="380.2450534739635" cy="360.6461538240432" r="1.25" fill="#e8bf96" opacity="0.8330830633222103"/><circle cx="392.13648634537657" cy="364.2337335566443" r="1.7000000000000002" fill="#e8bf96" opacity="0.46495510413162267"/><circle cx="321.57960006124324" cy="383.4924859104879" r="0.8" fill="#e8bf96" opacity="0.460010657223047"/><circle cx="328.9821581770967" cy="384.0690286300792" r="1.25" fill="#e8bf96" opacity="0.7937770038585039"/><circle cx="337.6926663757771" cy="385.16827091473994" r="1.7000000000000002" fill="#e8bf96" opacity="0.7412287796808595"/><circle cx="352.87330587006755" cy="386.27753230878113" r="0.8" fill="#e8bf96" opacity="0.27679592897131444"/><circle cx="363.623276963525" cy="388.879932839124" r="1.25" fill="#e8bf96" opacity="0.7743718320428524"/><circle cx="300" cy="406" r="5" fill="#f3eee8"/>
  
    <text x="28" y="36" fill="#e8bf96" font-family="ui-sans-serif, system-ui, sans-serif" font-size="11" letter-spacing="3.2">PLACEHOLDER</text>
    <text x="28" y="94%" fill="#f3eee8" font-family="ui-serif, Georgia, serif" font-size="18">Flora in Frequency</text>
    <text x="28" y="97.4%" fill="#b3aaa3" font-family="ui-sans-serif, system-ui, sans-serif" font-size="11">final still 1</text>
  
</svg>
