<?xml version="1.0" encoding="UTF-8"?>
<svg xmlns="http://www.w3.org/2000/svg" viewBox="0 0 800 800" width="800" height="800" role="img" aria-label="Flora in Frequency (placeholder)">
  <rect width="800" height="800" fill="#262323"/>
  
    <rect x="28" y="44" width="744" height="712" fill="none" stroke="#e8bf96" stroke-width="0.8" opacity="0.4"/>
    <path d="M28 68 H772" stroke="#e8bf96" stroke-width="0.6" opacity="0.35"/>
    <circle cx="46" cy="56" r="4" fill="#c27b6e"/>
    <circle cx="60" cy="56" r="4" fill="#e8bf96"/>
    <circle cx="74" cy="56" r="4" fill="#7d9a86"/>
    <circle cx="418.8473928912819" cy="392" r="0.8" fill="#e8bf96" opacity="0.3894952734032995"/><circle cx="429.2562869780284" cy="393.98127983339566" r="1.25" fill="#e8bf96" opacity="0.3067223514540456"/><circle cx="440.2363321148649" cy="396.84544882200476" r="1.7000000000000002" fill="#e8bf96" opacity="0.298651047715357"/><circle cx="451.400764771045" cy="400.3728751153743" r="0.8" fill="#e8bf96" opacity="0.41170783818099155"/><circle cx="462.4222069987485" cy="404.36961196670387" r="1.25" fill="#e8bf96" opacity="0.6478592299224328"/><circle cx="442.2874478665999" cy="408.67134967810335" r="1.7000000000000002" fill="#e8bf96" opacity="0.7862684404089304"/><circle cx="459.3162799303034" cy="416.68530228554243" r="0.8" fill="#e8bf96" opacity="0.32745536363065186"/><circle cx="468.5722010533863" cy="421.8118814077094" r="1.25" fill="#e8bf96" opacity="0.674854157925547"/><circle cx="487.80355389380196" cy="431.6272958322764" r="1.7000000000000002" fill="#e8bf96" opacity="0.4332492613709473"/><circle cx="425.11158417441663" cy="403.72016766069027" r="0.8" fill="#e8bf96" opacity="0.7634454728741911"/><circle cx="419.68972486608584" cy="408.3781239263089" r="1.25" fill="#e8bf96" opacity="0.6416266023922799"/><circle cx="427.5018818743921" cy="414.3165460776453" r="1.7000000000000002" fill="#e8bf96" opacity="0.7705799916645628"/><circle cx="437.6878346667539" cy="422.12895960691094" r="0.8" fill="#e8bf96" opacity="0.8874465025120297"/><circle cx="450.47513713039507" cy="432.0663658085689" r="1.25" fill="#e8bf96" opacity="0.8482758739731434"/><circle cx="462.87119501332495" cy="441.8789277189818" r="1.7000000000000002" fill="#e8bf96" opacity="0.7478051508943462"/><circle cx="438.76477560016406" cy="445.39669657958603" r="0.8" fill="#e8bf96" opacity="0.8331396719247277"/><circle cx="450.810607173901" cy="458.9401525229116" r="1.25" fill="#e8bf96" opacity="0.40066189422643217"/><circle cx="457.61263384412587" cy="465.7030311757448" r="1.7000000000000002" fill="#e8bf96" opacity="0.2485564000910199"/><circle cx="421.2200727110063" cy="418.68953571251916" r="0.8" fill="#e8bf96" opacity="0.773383438448418"/><circle cx="426.57829205061154" cy="425.21866423055417" r="1.25" fill="#e8bf96" opacity="0.39382793649585435"/><circle cx="420.2362218780841" cy="435.8302702514486" r="1.7000000000000002" fill="#e8bf96" opacity="0.8589146633958261"/><circle cx="426.4208447757386" cy="446.83637209405833" r="0.8" fill="#e8bf96" opacity="0.5112015804509792"/><circle cx="431.5121432758795" cy="455.87593475754704" r="1.25" fill="#e8bf96" opacity="0.6017601218966956"/><circle cx="435.88208538572815" cy="464.2198358116982" r="1.7000000000000002" fill="#e8bf96" opacity="0.2972341261379552"/><circle cx="441.3349143655802" cy="475.8764195177427" r="0.8" fill="#e8bf96" opacity="0.8674234168710608"/><circle cx="424.24858237844967" cy="478.97284570568684" r="1.25" fill="#e8bf96" opacity="0.6874322148116516"/><circle cx="426.88283774235913" cy="486.8424591201667" r="1.7000000000000002" fill="#e8bf96" opacity="0.2279591546345"/><circle cx="409.74645062108476" cy="426.7476881253056" r="0.8" fill="#e8bf96" opacity="0.5064453702840365"/><circle cx="410.1253995974306" cy="429.47422388090695" r="1.25" fill="#e8bf96" opacity="0.3039864383006898"/><circle cx="414.06726091533284" cy="447.65861657441474" r="1.7000000000000002" fill="#e8bf96" opacity="0.40602539147032074"/><circle cx="407.811200717373" cy="451.1126383894278" r="0.8" fill="#e8bf96" opacity="0.3704888709492661"/><circle cx="408.50826773741375" cy="462.6987279374139" r="1.25" fill="#e8bf96" opacity="0.3797891458824506"/><circle cx="407.58105518455557" cy="466.8835449860424" r="1.7000000000000002" fill="#e8bf96" opacity="0.4916985874792271"/><circle cx="407.148671239935" cy="487.51497550815066" r="0.8" fill="#e8bf96" opacity="0.4666881380019572"/><circle cx="404.1900754817962" cy="493.8785237868193" r="1.25" fill="#e8bf96" opacity="0.34436959857828925"/><circle cx="400" cy="494.7512239380555" r="1.7000000000000002" fill="#e8bf96" opacity="0.572503617641446"/><circle cx="399.0466577235416" cy="424.0101974082746" r="0.8" fill="#e8bf96" opacity="0.22715170127086823"/><circle cx="397.4746269405166" cy="429.5439903514705" r="1.25" fill="#e8bf96" opacity="0.2869935601698853"/><circle cx="394.51533598620586" cy="440.68980366646355" r="1.7000000000000002" fill="#e8bf96" opacity="0.7913915317875375"/><circle cx="390.5224667247877" cy="449.0278589365384" r="0.8" fill="#e8bf96" opacity="0.32214378131004195"/><circle cx="391.2865963402775" cy="457.9402181962512" r="1.25" fill="#e8bf96" opacity="0.8475790520606733"/><circle cx="386.0161982858641" cy="468.4058875825992" r="1.7000000000000002" fill="#e8bf96" opacity="0.5510637457688244"/><circle cx="379.6101404487162" cy="475.965997623925" r="0.8" fill="#e8bf96" opacity="0.3799932016797538"/><circle cx="372.10609565564255" cy="481.3758104022523" r="1.25" fill="#e8bf96" opacity="0.8747596974658517"/><circle cx="360.6607242544166" cy="492.502149924356" r="1.7000000000000002" fill="#e8bf96" opacity="0.6038343823034847"/><circle cx="393.2840573418166" cy="416.0881976299586" r="0.8" fill="#e8bf96" opacity="0.23526429827763423"/><circle cx="388.2555827461211" cy="424.910389065255" r="1.25" fill="#e8bf96" opacity="0.4366825365658951"/><circle cx="378.3588511124772" cy="440.4649620398544" r="1.7000000000000002" fill="#e8bf96" opacity="0.4753185251892501"/><circle cx="373.86882323725933" cy="439.6046691704348" r="0.8" fill="#e8bf96" opacity="0.3180084450731738"/><circle cx="358.80808269516547" cy="453.9092180868069" r="1.25" fill="#e8bf96" opacity="0.6312057710976842"/><circle cx="370.9817239384882" cy="454.85159797465235" r="1.7000000000000002" fill="#e8bf96" opacity="0.6809919347926734"/><circle cx="362.1975289206727" cy="457.246014541754" r="0.8" fill="#e8bf96" opacity="0.7400610191766827"/><circle cx="345.4906452955696" cy="468.28408380335054" r="1.25" fill="#e8bf96" opacity="0.8859548197516414"/><circle cx="333.94769260083575" cy="467.9428462811831" r="1.7000000000000002" fill="#e8bf96" opacity="0.7377057279453947"/><circle cx="381.45516421797475" cy="409.69198659625823" r="0.8" fill="#e8bf96" opacity="0.235716711706591"/><circle cx="381.79622049974745" cy="417.0748695311049" r="1.25" fill="#e8bf96" opacity="0.22006263866089285"/><circle cx="372.93270756430525" cy="421.65438431565957" r="1.7000000000000002" fill="#e8bf96" opacity="0.6775293522605534"/><circle cx="364.470781189821" cy="423.3802822524157" r="0.8" fill="#e8bf96" opacity="0.7082832284825781"/><circle cx="348.30674505739705" cy="429.1405290347832" r="1.25" fill="#e8bf96" opacity="0.2415892179109687"/><circle cx="333.1793017869944" cy="431.26421088871905" r="1.7000000000000002" fill="#e8bf96" opacity="0.3564630851309812"/><circle cx="351.23896012895716" cy="432.55995496205156" r="0.8" fill="#e8bf96" opacity="0.2605080266999903"/><circle cx="335.5125695271442" cy="433.56363181512677" r="1.25" fill="#e8bf96" opacity="0.8272271354216354"/><circle cx="321.32685311504474" cy="431.5073233733174" r="1.7000000000000002" fill="#e8bf96" opacity="0.479708174050138"/><circle cx="378.72645965843526" cy="400.3121299396211" r="0.8" fill="#e8bf96" opacity="0.8590792214926477"/><circle cx="368.13033719003136" cy="401.6042467446003" r="1.25" fill="#e8bf96" opacity="0.4829019551683086"/><circle cx="369.35526362062575" cy="404.08134190517944" r="1.7000000000000002" fill="#e8bf96" opacity="0.7525944991953292"/><circle cx="357.9937152494881" cy="403.4950253075468" r="0.8" fill="#e8bf96" opacity="0.3008949583171852"/><circle cx="351.85315311093615" cy="400.7265308051267" r="1.25" fill="#e8bf96" opacity="0.8273284098794829"/><circle cx="336.4806271510715" cy="398.8746894659419" r="1.7000000000000002" fill="#e8bf96" opacity="0.4564052460896346"/><circle cx="322.8129608876584" cy="395.7852301464719" r="0.8" fill="#e8bf96" opacity="0.6527301364854066"/><circle cx="339.420501510362" cy="392" r="1.25" fill="#e8bf96" opacity="0.6322513017167876"/><circle cx="328.7594837710065" cy="387.17548490581856" r="1.7000000000000002" fill="#e8bf96" opacity="0.8592905413888001"/><circle cx="371.1616390700237" cy="388.5271486079349" r="0.8" fill="#e8bf96" opacity="0.3054866297833723"/><circle cx="366.1354306002173" cy="386.48366553137294" r="1.25" fill="#e8bf96" opacity="0.35454246876754036"/><circle cx="349.79288291531435" cy="382.05093561788226" r="1.7000000000000002" fill="#e8bf96" opacity="0.28886547572394194"/><circle cx="368.0322653203995" cy="379.3970809271422" r="0.8" fill="#e8bf96" opacity="0.7902320549813521"/><circle cx="351.32726145253656" cy="371.74415682303294" r="1.25" fill="#e8bf96" opacity="0.4397933901512442"/><circle cx="344.1378366806997" cy="367.71382918339566" r="1.7000000000000002" fill="#e8bf96" opacity="0.61808143518203"/><circle cx="328.51178650812705" cy="359.73610567073695" r="0.8" fill="#e8bf96" opacity="0.6050151022337741"/><circle cx="315.0051306433994" cy="352.3308930157941" r="1.25" fill="#e8bf96" opacity="0.8913080735209586"/><circle cx="340.14665961790257" cy="342.2133507274136" r="1.7000000000000002" fill="#e8bf96" opacity="0.558765779384812"/><circle cx="383.51777760086594" cy="378.6254143148376" r="0.8" fill="#e8bf96" opacity="0.47205251828165273"/><circle cx="375.1989825045973" cy="372.1732081204325" r="1.25" fill="#e8bf96" opacity="0.4858053185265544"/><circle cx="367.4449043294131" cy="366.1582797744351" r="1.7000000000000002" fill="#e8bf96" opacity="0.6611911459007569"/><circle cx="351.14990529985977" cy="353.2447267449378" r="0.8" fill="#e8bf96" opacity="0.3346431963134091"/><circle cx="368.86924724305084" cy="349.11881899169595" r="1.25" fill="#e8bf96" opacity="0.5953678731169657"/><circle cx="359.2167926588175" cy="338.27038975447283" r="1.7000000000000002" fill="#e8bf96" opacity="0.3322223840888637"/><circle cx="350.88810238291876" cy="329.17184097215534" r="0.8" fill="#e8bf96" opacity="0.7823555414509155"/><circle cx="339.16805793337306" cy="315.4886556535205" r="1.25" fill="#e8bf96" opacity="0.5832256809855334"/><circle cx="334.3018413308253" cy="309.8876855878792" r="1.7000000000000002" fill="#e8bf96" opacity="0.827436517095266"/><circle cx="388.66958312987987" cy="367.45909327981946" r="0.8" fill="#e8bf96" opacity="0.33759902703679473"/><circle cx="383.959841837862" cy="358.70870712528307" r="1.25" fill="#e8bf96" opacity="0.5832392711278953"/><circle cx="377.7741085107266" cy="346.94753935750754" r="1.7000000000000002" fill="#e8bf96" opacity="0.6824853322700801"/><circle cx="375.56990859099267" cy="342.82958051470894" r="0.8" fill="#e8bf96" opacity="0.7534150521204719"/><circle cx="368.8709036758321" cy="328.8331304765368" r="1.25" fill="#e8bf96" opacity="0.6063658097065127"/><circle cx="380.85078144802395" cy="323.3171382758595" r="1.7000000000000002" fill="#e8bf96" opacity="0.7219474507993436"/><circle cx="375.4258427086647" cy="305.30254898486453" r="0.8" fill="#e8bf96" opacity="0.3252302332655017"/><circle cx="373.73901703185487" cy="298.37530712288054" r="1.25" fill="#e8bf96" opacity="0.4870966646881425"/><circle cx="370.6688803727049" cy="283.44517872955464" r="1.7000000000000002" fill="#e8bf96" opacity="0.5429956218816369"/><circle cx="392.97497171101014" cy="364.20472710965896" r="0.8" fill="#e8bf96" opacity="0.325320538124397"/><circle cx="394.46020071984213" cy="350.076592389996" r="1.25" fill="#e8bf96" opacity="0.5631855321865441"/><circle cx="393.5599321965565" cy="338.4868037083479" r="1.7000000000000002" fill="#e8bf96" opacity="0.5992318040053033"/><circle cx="393.45552508197846" cy="327.35550526896475" r="0.8" fill="#e8bf96" opacity="0.9109430187826728"/><circle cx="394.63736601188464" cy="320.34866273152704" r="1.25" fill="#e8bf96" opacity="0.3675466186784615"/><circle cx="396.56362831469926" cy="308.4472153300726" r="1.7000000000000002" fill="#e8bf96" opacity="0.4277228864816789"/><circle cx="400" cy="306.40062556795544" r="0.8" fill="#e8bf96" opacity="0.4633209012053339"/><circle cx="402.9209435323509" cy="293.9240188987281" r="1.25" fill="#e8bf96" opacity="0.3893529791156834"/><circle cx="407.2846762881204" cy="283.7008260432133" r="1.7000000000000002" fill="#e8bf96" opacity="0.6461589565628127"/><circle cx="403.1926126525703" cy="363.65775645586376" r="0.8" fill="#e8bf96" opacity="0.5591677518196048"/><circle cx="406.9693306296695" cy="350.0644042611406" r="1.25" fill="#e8bf96" opacity="0.23859115025563368"/><circle cx="406.80280982379185" cy="340.5185374571839" r="1.7000000000000002" fill="#e8bf96" opacity="0.5506282446302248"/><circle cx="412.0370717319154" cy="326.23082160535057" r="0.8" fill="#e8bf96" opacity="0.22796579795167674"/><circle cx="415.5667811478282" cy="327.8955707574552" r="1.25" fill="#e8bf96" opacity="0.42560137205415993"/><circle cx="422.804936424476" cy="318.9299253002678" r="1.7000000000000002" fill="#e8bf96" opacity="0.597807331673847"/><circle cx="431.75397938865456" cy="310.8764120149882" r="0.8" fill="#e8bf96" opacity="0.7049250898955631"/><circle cx="424.1946080803399" cy="305.22074492275937" r="1.25" fill="#e8bf96" opacity="0.6763172380093305"/><circle cx="434.78651031647894" cy="294.52069864430973" r="1.7000000000000002" fill="#e8bf96" opacity="0.5791128527794467"/><circle cx="412.6666539413822" cy="363.6332572900046" r="0.8" fill="#e8bf96" opacity="0.6150679597417433"/><circle cx="416.6997479584014" cy="361.5771076822349" r="1.25" fill="#e8bf96" opacity="0.7445672790318707"/><circle cx="427.9274004033526" cy="350.0266315507044" r="1.7000000000000002" fill="#e8bf96" opacity="0.3872899260684971"/><circle cx="419.9439572109455" cy="348.80275499520116" r="0.8" fill="#e8bf96" opacity="0.7623298268273129"/><circle cx="429.890536139495" cy="340.4097652895283" r="1.25" fill="#e8bf96" opacity="0.47826171272624374"/><circle cx="441.9785067040438" cy="333.2524338122367" r="1.7000000000000002" fill="#e8bf96" opacity="0.7381804003870638"/><circle cx="455.7866204894975" cy="327.8600038182131" r="0.8" fill="#e8bf96" opacity="0.22543678557592103"/><circle cx="470.18620034166094" cy="325.0415577532092" r="1.25" fill="#e8bf96" opacity="0.3773502653636751"/><circle cx="449.52921313328164" cy="323.7757855022307" r="1.7000000000000002" fill="#e8bf96" opacity="0.5314739640390326"/><circle cx="418.29823011716184" cy="371.9528250016202" r="0.8" fill="#e8bf96" opacity="0.7255827969251822"/><circle cx="428.73340184157524" cy="366.6219508884223" r="1.25" fill="#e8bf96" opacity="0.2976614637012244"/><circle cx="434.82141364978366" cy="366.9815381885321" r="1.7000000000000002" fill="#e8bf96" opacity="0.6858923750457233"/><circle cx="452.7446246054548" cy="361.0069676142382" r="0.8" fill="#e8bf96" opacity="0.5286435164343584"/><circle cx="436.255779051863" cy="361.84205485882296" r="1.25" fill="#e8bf96" opacity="0.5644562529573887"/><circle cx="451.18925873695974" cy="359.00734565741743" r="1.7000000000000002" fill="#e8bf96" opacity="0.6537763248419776"/><circle cx="458.568234254584" cy="362.5887680648689" r="0.8" fill="#e8bf96" opacity="0.8128813074024048"/><circle cx="475.99524961596615" cy="362.3066636084235" r="1.25" fill="#e8bf96" opacity="0.2680216134705842"/><circle cx="495.7982887922701" cy="363.13021217834637" r="1.7000000000000002" fill="#e8bf96" opacity="0.45893449963864164"/><circle cx="420.43586443465455" cy="383.9433907896453" r="0.8" fill="#e8bf96" opacity="0.679363382504182"/><circle cx="424.5180833426231" cy="385.2906232914931" r="1.25" fill="#e8bf96" opacity="0.2992793667752903"/><circle cx="440.3273662015182" cy="384.6907362332982" r="1.7000000000000002" fill="#e8bf96" opacity="0.8965950245230669"/><circle cx="450.4924780832172" cy="386.5352088407175" r="0.8" fill="#e8bf96" opacity="0.8652870163645912"/><circle cx="465.08793352328763" cy="388.8081065036667" r="1.25" fill="#e8bf96" opacity="0.7245904363856379"/><circle cx="400" cy="406" r="5" fill="#f3eee8"/>
  
  
    <text x="28" y="36" fill="#e8bf96" font-family="ui-sans-serif, system-ui, sans-serif" font-size="11" letter-spacing="3.2">PLACEHOLDER</text>
    <text x="28" y="94%" fill="#f3eee8" font-family="ui-serif, Georgia, serif" font-size="18">Flora in Frequency</text>
    <text x="28" y="97.4%" fill="#b3aaa3" font-family="ui-sans-serif, system-ui, sans-serif" font-size="11">process — photogrammetry 3</text>
  
</svg>
