<?xml version="1.0" encoding="UTF-8"?>
<svg xmlns="http://www.w3.org/2000/svg" viewBox="0 0 600 800" width="600" height="800" role="img" aria-label="Transience (placeholder)">
  <rect width="600" height="800" fill="#262323"/>
  <circle cx="322.6612000963177" cy="392" r="0.8" fill="#e8bf96" opacity="0.838238146028932"/><circle cx="327.4512298594502" cy="393.85903864572026" r="1.25" fill="#e8bf96" opacity="0.7368545984802335"/><circle cx="341.40660514752835" cy="396.98637861827336" r="1.7000000000000002" fill="#e8bf96" opacity="0.49121516395516207"/><circle cx="353.58227653268466" cy="400.7282302472345" r="0.8" fill="#e8bf96" opacity="0.413249659716048"/><circle cx="360.09754224185747" cy="403.90895537703875" r="1.25" fill="#e8bf96" opacity="0.4633790153288271"/><circle cx="348.65540436124246" cy="411.1818447496441" r="1.7000000000000002" fill="#e8bf96" opacity="0.6019834456735179"/><circle cx="359.4007983413855" cy="416.72047580837136" r="0.8" fill="#e8bf96" opacity="0.7894150440113652"/><circle cx="370.3348168738161" cy="422.57818164306417" r="1.25" fill="#e8bf96" opacity="0.2860103839894333"/><circle cx="389.5146685882472" cy="432.39955213845906" r="1.7000000000000002" fill="#e8bf96" opacity="0.4521031265785166"/><circle cx="332.29137286799653" cy="407.0711441133354" r="0.8" fill="#e8bf96" opacity="0.5480366279367342"/><circle cx="323.95261826625244" cy="411.9240442917493" r="1.25" fill="#e8bf96" opacity="0.5341765441915822"/><circle cx="329.6384777388867" cy="416.05029798149945" r="1.7000000000000002" fill="#e8bf96" opacity="0.5099525014165192"/><circle cx="337.7066294294353" cy="422.1439847907841" r="0.8" fill="#e8bf96" opacity="0.44306379103556537"/><circle cx="348.04253353393375" cy="430.1354035347811" r="1.25" fill="#e8bf96" opacity="0.7978145335638327"/><circle cx="360.27703436296804" cy="439.8208476786206" r="1.7000000000000002" fill="#e8bf96" opacity="0.8538594092812855"/><circle cx="342.7376964394417" cy="450.86921242174463" r="0.8" fill="#e8bf96" opacity="0.2808425599275506"/><circle cx="347.120985072757" cy="454.0792803558624" r="1.25" fill="#e8bf96" opacity="0.3654200041363037"/><circle cx="357.80614401660745" cy="465.95058601439047" r="1.7000000000000002" fill="#e8bf96" opacity="0.55458266303669"/><circle cx="318.868068800443" cy="415.73130398438724" r="0.8" fill="#e8bf96" opacity="0.5688058675698084"/><circle cx="325.3481894041435" cy="423.68123034637813" r="1.25" fill="#e8bf96" opacity="0.3202700900151467"/><circle cx="318.4487374732935" cy="431.9587014870702" r="1.7000000000000002" fill="#e8bf96" opacity="0.3114290902372159"/><circle cx="323.1297045630755" cy="440.0056219478316" r="0.8" fill="#e8bf96" opacity="0.34376680113266045"/><circle cx="331.117397474296" cy="455.0757747415488" r="1.25" fill="#e8bf96" opacity="0.8037758088968256"/><circle cx="336.7415287951094" cy="465.9496366649018" r="1.7000000000000002" fill="#e8bf96" opacity="0.5277652613721511"/><circle cx="336.7810508543336" cy="466.6357625051829" r="0.8" fill="#e8bf96" opacity="0.48303476751727425"/><circle cx="324.08038266494503" cy="478.3695606351592" r="1.25" fill="#e8bf96" opacity="0.3618415029211246"/><circle cx="328.39831511154165" cy="492.18905243043156" r="1.7000000000000002" fill="#e8bf96" opacity="0.4848413652023009"/><circle cx="308.7257062277906" cy="423.10856766876645" r="0.8" fill="#e8bf96" opacity="0.6093896097817559"/><circle cx="309.76625572824247" cy="428.14502816572474" r="1.25" fill="#e8bf96" opacity="0.8670370310698854"/><circle cx="311.5329276884838" cy="437.63125714787276" r="1.7000000000000002" fill="#e8bf96" opacity="0.8312942224362996"/><circle cx="307.4013655391955" cy="448.01113843270656" r="0.8" fill="#e8bf96" opacity="0.3470884570410999"/><circle cx="308.96276603893284" cy="466.4753429616235" r="1.25" fill="#e8bf96" opacity="0.40302427361713855"/><circle cx="308.02047343415853" cy="471.22399568331036" r="1.7000000000000002" fill="#e8bf96" opacity="0.6423843383914299"/><circle cx="306.6042611804563" cy="480.24099244861213" r="0.8" fill="#e8bf96" opacity="0.8842447749005895"/><circle cx="303.9359037280797" cy="487.69852937635045" r="1.25" fill="#e8bf96" opacity="0.4661301179791462"/><circle cx="300" cy="499.63198593884374" r="1.7000000000000002" fill="#e8bf96" opacity="0.8253296870802114"/><circle cx="298.9884636679497" cy="425.9641684567478" r="0.8" fill="#e8bf96" opacity="0.5988857339416154"/><circle cx="296.7579321231249" cy="440.1988847671916" r="1.25" fill="#e8bf96" opacity="0.5235816687836359"/><circle cx="293.6133894465157" cy="448.6967845543918" r="1.7000000000000002" fill="#e8bf96" opacity="0.6359303687782994"/><circle cx="290.59516923604104" cy="448.5903961035741" r="0.8" fill="#e8bf96" opacity="0.27216257250667697"/><circle cx="291.22972301471225" cy="458.3706171131127" r="1.25" fill="#e8bf96" opacity="0.8682153640948126"/><circle cx="285.51108996662305" cy="471.16574146539233" r="1.7000000000000002" fill="#e8bf96" opacity="0.6466684092237482"/><circle cx="277.77788467251287" cy="483.5112768723749" r="0.8" fill="#e8bf96" opacity="0.8510401973978514"/><circle cx="271.43011507450694" cy="483.54174284072775" r="1.25" fill="#e8bf96" opacity="0.8784456427781333"/><circle cx="258.9317389077891" cy="496.9192811813614" r="1.7000000000000002" fill="#e8bf96" opacity="0.7086291217002508"/><circle cx="291.50987446923983" cy="422.45169265090567" r="0.8" fill="#e8bf96" opacity="0.543107426036222"/><circle cx="286.84297544473986" cy="428.8688192606334" r="1.25" fill="#e8bf96" opacity="0.5651054733719502"/><circle cx="279.49110115052133" cy="437.9293085309472" r="1.7000000000000002" fill="#e8bf96" opacity="0.4849858939223122"/><circle cx="274.30386829079316" cy="438.8121225493718" r="0.8" fill="#e8bf96" opacity="0.28497466966011414"/><circle cx="258.597025569334" cy="454.2264255024069" r="1.25" fill="#e8bf96" opacity="0.46708055963819783"/><circle cx="270.3260300790711" cy="456.2717859540889" r="1.7000000000000002" fill="#e8bf96" opacity="0.7325898800466529"/><circle cx="258.2925361618945" cy="463.9859235225724" r="0.8" fill="#e8bf96" opacity="0.5001550248327657"/><circle cx="245.45447478390193" cy="468.3347032678118" r="1.25" fill="#e8bf96" opacity="0.8141984839499582"/><circle cx="232.75092003044034" cy="469.31882115512406" r="1.7000000000000002" fill="#e8bf96" opacity="0.8974762115763678"/><circle cx="277.4213591839216" cy="413.54028298632704" r="0.8" fill="#e8bf96" opacity="0.3073167997372548"/><circle cx="280.6917644540217" cy="418.59620696814807" r="1.25" fill="#e8bf96" opacity="0.7683224963810471"/><circle cx="272.83416213779645" cy="421.76234871428517" r="1.7000000000000002" fill="#e8bf96" opacity="0.5527588729168837"/><circle cx="264.8622624869153" cy="423.03451631635636" r="0.8" fill="#e8bf96" opacity="0.5878387428933092"/><circle cx="250.53285587587436" cy="427.54111468991164" r="1.25" fill="#e8bf96" opacity="0.5596391335028056"/><circle cx="232.38869937823506" cy="431.7287732254924" r="1.7000000000000002" fill="#e8bf96" opacity="0.5679844692831193"/><circle cx="253.61658628235466" cy="430.5822200746611" r="0.8" fill="#e8bf96" opacity="0.27037453259851646"/><circle cx="236.34394201683403" cy="433.02779312828005" r="1.25" fill="#e8bf96" opacity="0.46678043262920255"/><circle cx="219.2027788023898" cy="432.5739705593226" r="1.7000000000000002" fill="#e8bf96" opacity="0.6536345313955234"/><circle cx="277.65054711987113" cy="400.7325171756253" r="0.8" fill="#e8bf96" opacity="0.9031361578216046"/><circle cx="258.9343999391957" cy="404.37553588347566" r="1.25" fill="#e8bf96" opacity="0.5368279435700014"/><circle cx="270.69332807283865" cy="403.55382507689853" r="1.7000000000000002" fill="#e8bf96" opacity="0.2608659541737222"/><circle cx="259.4869273032389" cy="403.0864076340405" r="0.8" fill="#e8bf96" opacity="0.3802906130848567"/><circle cx="247.37771798011437" cy="401.5376955035222" r="1.25" fill="#e8bf96" opacity="0.3579494906213153"/><circle cx="233.15204334338748" cy="399.2349414491221" r="1.7000000000000002" fill="#e8bf96" opacity="0.24021544157562402"/><circle cx="222.64145655254345" cy="395.79364066962444" r="0.8" fill="#e8bf96" opacity="0.23470999340365892"/><circle cx="243.38541524107876" cy="392" r="1.25" fill="#e8bf96" opacity="0.3526882139546512"/><circle cx="226.57021833503848" cy="387.02722455201865" r="1.7000000000000002" fill="#e8bf96" opacity="0.831917675388031"/><circle cx="270.5385490900309" cy="388.4521131747613" r="0.8" fill="#e8bf96" opacity="0.407320167256621"/><circle cx="265.29111106353315" cy="386.34613096219647" r="1.25" fill="#e8bf96" opacity="0.5982214620006925"/><circle cx="258.2114599264068" cy="383.7191645374576" r="1.7000000000000002" fill="#e8bf96" opacity="0.6974410884900135"/><circle cx="267.180809881071" cy="379.0614042173737" r="0.8" fill="#e8bf96" opacity="0.4531529290999242"/><circle cx="257.0283059090928" cy="374.1167264770768" r="1.25" fill="#e8bf96" opacity="0.28090757808960914"/><circle cx="247.0574805379224" cy="368.9831493318988" r="1.7000000000000002" fill="#e8bf96" opacity="0.7598001776720775"/><circle cx="234.69535405453757" cy="362.5268590012553" r="0.8" fill="#e8bf96" opacity="0.4798887966969414"/><circle cx="219.4780794501683" cy="354.41852355271675" r="1.25" fill="#e8bf96" opacity="0.3158703972542935"/><circle cx="240.4179427189141" cy="342.4390069149784" r="1.7000000000000002" fill="#e8bf96" opacity="0.4533527325192335"/><circle cx="282.3878832089054" cy="377.7085555930881" r="0.8" fill="#e8bf96" opacity="0.37045510792588177"/><circle cx="272.2285421883043" cy="369.79853530901516" r="1.25" fill="#e8bf96" opacity="0.888978712471653"/><circle cx="262.05732112852286" cy="361.88170141084737" r="1.7000000000000002" fill="#e8bf96" opacity="0.8896177902067575"/><circle cx="255.8949329982558" cy="357.0091993868639" r="0.8" fill="#e8bf96" opacity="0.35257021219687884"/><circle cx="270.23568847291097" cy="351.00102897782494" r="1.25" fill="#e8bf96" opacity="0.6586497391931698"/><circle cx="257.8720659601112" cy="336.49878702583493" r="1.7000000000000002" fill="#e8bf96" opacity="0.38929211993847274"/><circle cx="252.17235962671717" cy="330.8147731792376" r="0.8" fill="#e8bf96" opacity="0.22656099177831493"/><circle cx="245.45114099459852" cy="323.39120019382847" r="1.25" fill="#e8bf96" opacity="0.8531535816909308"/><circle cx="235.50862399891292" cy="311.3959731849196" r="1.7000000000000002" fill="#e8bf96" opacity="0.4527601047076314"/><circle cx="289.3663775716527" cy="368.9683023049334" r="0.8" fill="#e8bf96" opacity="0.8297421053824291"/><circle cx="280.9739017118838" cy="352.51139870503624" r="1.25" fill="#e8bf96" opacity="0.8977977614599422"/><circle cx="275.9871869173206" cy="343.3254027697807" r="1.7000000000000002" fill="#e8bf96" opacity="0.46570562506164603"/><circle cx="275.4246314858084" cy="342.5371814367061" r="0.8" fill="#e8bf96" opacity="0.251391872344102"/><circle cx="268.34912477352" cy="327.7743416347658" r="1.25" fill="#e8bf96" opacity="0.9162107450741314"/><circle cx="280.5784035138343" cy="322.3401952251612" r="1.7000000000000002" fill="#e8bf96" opacity="0.3216820416336486"/><circle cx="278.1782014566894" cy="315.01285094574155" r="0.8" fill="#e8bf96" opacity="0.5295033478722143"/><circle cx="272.39220569737984" cy="293.5737047721001" r="1.25" fill="#e8bf96" opacity="0.8015622114489542"/><circle cx="272.4982261580485" cy="290.21560915611826" r="1.7000000000000002" fill="#e8bf96" opacity="0.3999482557971714"/><circle cx="290.6968211679386" cy="355.1909817658583" r="0.8" fill="#e8bf96" opacity="0.6869652298580331"/><circle cx="293.69024638026383" cy="344.2498271974647" r="1.25" fill="#e8bf96" opacity="0.22514298975772362"/><circle cx="294.0476468398751" cy="342.53942710282024" r="1.7000000000000002" fill="#e8bf96" opacity="0.3914526793849472"/><circle cx="294.4124376772916" cy="336.8076205265909" r="0.8" fill="#e8bf96" opacity="0.5907911110929671"/><circle cx="294.19853229508203" cy="314.4853085072625" r="1.25" fill="#e8bf96" opacity="0.392041323317444"/><circle cx="296.87609472508603" cy="316.04460033219675" r="1.7000000000000002" fill="#e8bf96" opacity="0.518850804392714"/><circle cx="300" cy="302.5194363904279" r="0.8" fill="#e8bf96" opacity="0.7604228799019619"/><circle cx="303.0987099192729" cy="287.95518978200477" r="1.25" fill="#e8bf96" opacity="0.6770497871074621"/><circle cx="307.10259441620536" cy="286.4077845326465" r="1.7000000000000002" fill="#e8bf96" opacity="0.8067861318933136"/><circle cx="303.9596196715553" cy="356.8486937546201" r="0.8" fill="#e8bf96" opacity="0.4709500584723355"/><circle cx="305.9190696453344" cy="356.3839953954563" r="1.25" fill="#e8bf96" opacity="0.7197747316576351"/><circle cx="306.2942225702533" cy="344.36736115224465" r="1.7000000000000002" fill="#e8bf96" opacity="0.6850528244879751"/><circle cx="310.96390196625396" cy="332.09449803243285" r="0.8" fill="#e8bf96" opacity="0.4027894980233395"/><circle cx="315.67426492390825" cy="327.45294963668425" r="1.25" fill="#e8bf96" opacity="0.7175534233246434"/><circle cx="323.3108533112492" cy="317.3088997459628" r="1.7000000000000002" fill="#e8bf96" opacity="0.864271198214119"/><circle cx="333.7857515423759" cy="305.685735121849" r="0.8" fill="#e8bf96" opacity="0.6868387995341618"/><circle cx="325.56770471496014" cy="300.295833442245" r="1.25" fill="#e8bf96" opacity="0.8810731145725367"/><circle cx="335.7455742440855" cy="291.8331947593844" r="1.7000000000000002" fill="#e8bf96" opacity="0.23035793302780802"/><circle cx="312.02414950673653" cy="365.0721343661424" r="0.8" fill="#e8bf96" opacity="0.4238070723276178"/><circle cx="320.8880527621965" cy="353.9470316860441" r="1.25" fill="#e8bf96" opacity="0.7130950047017177"/><circle cx="329.3022228725489" cy="347.9603479289384" r="1.7000000000000002" fill="#e8bf96" opacity="0.6901896334807316"/><circle cx="321.1429659462423" cy="346.20578421584725" r="0.8" fill="#e8bf96" opacity="0.47443627765926066"/><circle cx="332.31082680366467" cy="336.2324108637208" r="1.25" fill="#e8bf96" opacity="0.6344949246945544"/><circle cx="344.59334050572636" cy="329.5930582437497" r="1.7000000000000002" fill="#e8bf96" opacity="0.6337761007990775"/><circle cx="355.5800721805907" cy="328.09748025303554" r="0.8" fill="#e8bf96" opacity="0.4806858996128721"/><circle cx="372.8692074032327" cy="322.48193816267053" r="1.25" fill="#e8bf96" opacity="0.8100678218253232"/><circle cx="346.52986979807974" cy="327.9072430826816" r="1.7000000000000002" fill="#e8bf96" opacity="0.4908428463758536"/><circle cx="316.3485904328683" cy="374.0888112519057" r="0.8" fill="#e8bf96" opacity="0.36714575141515526"/><circle cx="328.36042580044113" cy="366.95137252605264" r="1.25" fill="#e8bf96" opacity="0.8384840300442373"/><circle cx="338.9297910866678" cy="364.02975440842636" r="1.7000000000000002" fill="#e8bf96" opacity="0.8737647289163941"/><circle cx="348.33341535442366" cy="363.5990185047367" r="0.8" fill="#e8bf96" opacity="0.45863188838913627"/><circle cx="337.80415291313733" cy="360.554100905343" r="1.25" fill="#e8bf96" opacity="0.5045511889006957"/><circle cx="349.97962530859354" cy="359.78698221727456" r="1.7000000000000002" fill="#e8bf96" opacity="0.40640640121438987"/><circle cx="361.9616525764944" cy="360.8846939265775" r="0.8" fill="#e8bf96" opacity="0.818883389149114"/><circle cx="382.4975634742192" cy="359.7660391129135" r="1.25" fill="#e8bf96" opacity="0.6386697039583122"/><circle cx="395.1167849338341" cy="363.3355902914706" r="1.7000000000000002" fill="#e8bf96" opacity="0.6040915165053502"/><circle cx="316.5919113499497" cy="385.45882596614257" r="0.8" fill="#e8bf96" opacity="0.4699159058668283"/><circle cx="331.2229380402279" cy="383.45583892791154" r="1.25" fill="#e8bf96" opacity="0.8324681408979085"/><circle cx="342.97100951473334" cy="384.2115805605769" r="1.7000000000000002" fill="#e8bf96" opacity="0.45102977203257066"/><circle cx="349.39074753055917" cy="386.65444892582786" r="0.8" fill="#e8bf96" opacity="0.7631009547902249"/><circle cx="364.04663498389334" cy="388.85917148385147" r="1.25" fill="#e8bf96" opacity="0.6383226434872267"/><circle cx="300" cy="406" r="5" fill="#f3eee8"/>
  
    <text x="28" y="36" fill="#e8bf96" font-family="ui-sans-serif, system-ui, sans-serif" font-size="11" letter-spacing="3.2">PLACEHOLDER</text>
    <text x="28" y="94%" fill="#f3eee8" font-family="ui-serif, Georgia, serif" font-size="18">Transience</text>
    <text x="28" y="97.4%" fill="#b3aaa3" font-family="ui-sans-serif, system-ui, sans-serif" font-size="11">gallery 2</text>
  
</svg>
