<?xml version="1.0" encoding="UTF-8"?>
<svg xmlns="http://www.w3.org/2000/svg" viewBox="0 0 800 800" width="800" height="800" role="img" aria-label="Gardenscapes (placeholder)">
  <rect width="800" height="800" fill="#262323"/>
  <path d="M24 70 C 224.00000000000003 41.766879650785995, 440.00000000000006 94.233120349214, 776 62" fill="none" stroke="#e8bf96" stroke-width="0.8" opacity="0.22"/><path d="M24 164.28571428571428 C 224.00000000000003 136.05259393650027, 440.00000000000006 188.51883463492828, 776 156.28571428571428" fill="none" stroke="#e8bf96" stroke-width="0.8" opacity="0.3"/><path d="M24 258.57142857142856 C 224.00000000000003 230.33830822221455, 440.00000000000006 282.80454892064256, 776 250.57142857142856" fill="none" stroke="#e8bf96" stroke-width="0.8" opacity="0.38"/><path d="M24 352.8571428571429 C 224.00000000000003 324.6240225079289, 440.00000000000006 377.0902632063569, 776 344.8571428571429" fill="none" stroke="#e8bf96" stroke-width="1.8" opacity="0.45999999999999996"/><path d="M24 447.14285714285717 C 224.00000000000003 418.90973679364316, 440.00000000000006 471.3759774920712, 776 439.14285714285717" fill="none" stroke="#e8bf96" stroke-width="0.8" opacity="0.54"/><path d="M24 541.4285714285714 C 224.00000000000003 513.1954510793574, 440.00000000000006 565.6616917777854, 776 533.4285714285714" fill="none" stroke="#e8bf96" stroke-width="0.8" opacity="0.62"/><path d="M24 635.7142857142858 C 224.00000000000003 607.4811653650718, 440.00000000000006 659.9474060634998, 776 627.7142857142858" fill="none" stroke="#e8bf96" stroke-width="0.8" opacity="0.7"/><circle cx="542" cy="503" r="1.1" fill="#e8bf96" opacity="0.55"/><circle cx="589" cy="534" r="1.1" fill="#e8bf96" opacity="0.55"/><circle cx="636" cy="565" r="1.1" fill="#e8bf96" opacity="0.55"/><circle cx="683" cy="596" r="1.1" fill="#e8bf96" opacity="0.55"/><circle cx="730" cy="627" r="1.1" fill="#e8bf96" opacity="0.55"/><circle cx="37" cy="658" r="1.1" fill="#e8bf96" opacity="0.55"/><circle cx="84" cy="689" r="1.1" fill="#e8bf96" opacity="0.55"/><circle cx="131" cy="720" r="1.1" fill="#e8bf96" opacity="0.55"/><circle cx="178" cy="91" r="1.1" fill="#e8bf96" opacity="0.55"/><circle cx="225" cy="122" r="1.1" fill="#e8bf96" opacity="0.55"/><circle cx="272" cy="153" r="1.1" fill="#e8bf96" opacity="0.55"/><circle cx="319" cy="184" r="1.1" fill="#e8bf96" opacity="0.55"/><circle cx="366" cy="215" r="1.1" fill="#e8bf96" opacity="0.55"/><circle cx="413" cy="246" r="1.1" fill="#e8bf96" opacity="0.55"/><circle cx="460" cy="277" r="1.1" fill="#e8bf96" opacity="0.55"/><circle cx="507" cy="308" r="1.1" fill="#e8bf96" opacity="0.55"/><circle cx="554" cy="339" r="1.1" fill="#e8bf96" opacity="0.55"/><circle cx="601" cy="370" r="1.1" fill="#e8bf96" opacity="0.55"/><circle cx="648" cy="401" r="1.1" fill="#e8bf96" opacity="0.55"/><circle cx="695" cy="432" r="1.1" fill="#e8bf96" opacity="0.55"/><circle cx="742" cy="463" r="1.1" fill="#e8bf96" opacity="0.55"/><circle cx="49" cy="494" r="1.1" fill="#e8bf96" opacity="0.55"/><circle cx="96" cy="525" r="1.1" fill="#e8bf96" opacity="0.55"/><circle cx="143" cy="556" r="1.1" fill="#e8bf96" opacity="0.55"/><circle cx="190" cy="587" r="1.1" fill="#e8bf96" opacity="0.55"/><circle cx="237" cy="618" r="1.1" fill="#e8bf96" opacity="0.55"/><circle cx="284" cy="649" r="1.1" fill="#e8bf96" opacity="0.55"/><circle cx="331" cy="680" r="1.1" fill="#e8bf96" opacity="0.55"/><circle cx="378" cy="711" r="1.1" fill="#e8bf96" opacity="0.55"/><circle cx="425" cy="82" r="1.1" fill="#e8bf96" opacity="0.55"/><circle cx="472" cy="113" r="1.1" fill="#e8bf96" opacity="0.55"/><circle cx="519" cy="144" r="1.1" fill="#e8bf96" opacity="0.55"/><circle cx="566" cy="175" r="1.1" fill="#e8bf96" opacity="0.55"/><circle cx="613" cy="206" r="1.1" fill="#e8bf96" opacity="0.55"/><circle cx="660" cy="237" r="1.1" fill="#e8bf96" opacity="0.55"/><circle cx="707" cy="268" r="1.1" fill="#e8bf96" opacity="0.55"/><circle cx="754" cy="299" r="1.1" fill="#e8bf96" opacity="0.55"/><circle cx="61" cy="330" r="1.1" fill="#e8bf96" opacity="0.55"/><circle cx="108" cy="361" r="1.1" fill="#e8bf96" opacity="0.55"/><circle cx="155" cy="392" r="1.1" fill="#e8bf96" opacity="0.55"/><circle cx="202" cy="423" r="1.1" fill="#e8bf96" opacity="0.55"/><circle cx="249" cy="454" r="1.1" fill="#e8bf96" opacity="0.55"/><circle cx="296" cy="485" r="1.1" fill="#e8bf96" opacity="0.55"/><circle cx="343" cy="516" r="1.1" fill="#e8bf96" opacity="0.55"/><circle cx="390" cy="547" r="1.1" fill="#e8bf96" opacity="0.55"/><circle cx="437" cy="578" r="1.1" fill="#e8bf96" opacity="0.55"/><circle cx="484" cy="609" r="1.1" fill="#e8bf96" opacity="0.55"/><circle cx="531" cy="640" r="1.1" fill="#e8bf96" opacity="0.55"/><circle cx="578" cy="671" r="1.1" fill="#e8bf96" opacity="0.55"/><circle cx="625" cy="702" r="1.1" fill="#e8bf96" opacity="0.55"/>
  
    <text x="28" y="36" fill="#e8bf96" font-family="ui-sans-serif, system-ui, sans-serif" font-size="11" letter-spacing="3.2">PLACEHOLDER</text>
    <text x="28" y="94%" fill="#f3eee8" font-family="ui-serif, Georgia, serif" font-size="18">Gardenscapes</text>
    <text x="28" y="97.4%" fill="#b3aaa3" font-family="ui-sans-serif, system-ui, sans-serif" font-size="11">gallery 1</text>
  
</svg>
